PathFileType	4	(X/Y/Z)	C:/Users/beibeiliu/ov580/test_trc/User2\sequence.3_training_dense_right.trc
DataRate	CameraRate	NumFrames	NumMarkers	Units	OrigDataRate	OrigDataStartFrame	OrigNumFrames
120	120	22	19	mm	120	258	343
Frame#	Time	ThumbCMC			ThumbMCP			ThumbIP			ThumbTip			IndexMCP			IndexPIP			IndexTip			MiddleMCP			MiddlePIP			MiddleTip			RingMCP			RingPIP			RingTip			PinkyMCP			PinkyPIP			PinkyTip			BackHand1			BackHand2			BackHand3	
		X0	Y0	Z0	X1	Y1	Z1	X2	Y2	Z2	X3	Y3	Z3	X4	Y4	Z4	X5	Y5	Z5	X6	Y6	Z6	X7	Y7	Z7	X8	Y8	Z8	X9	Y9	Z9	X10	Y10	Z10	X11	Y11	Z11	X12	Y12	Z12	X13	Y13	Z13	X14	Y14	Z14	X15	Y15	Z15	X16	Y16	Z16	X17	Y17	Z17	X18	Y18	Z18	
257	2.14167	117.676	20.32	12.0622	93.11	15.9754	-15.8329	71.9174	4.77416	-43.3196	59.7715	-22.4136	-49.4606	109.412	-23.7648	-54.8288	79.5511	-13.7728	-52.4587	89.7217	0.0637437	-22.9944	95.8787	-40.7902	-47.8135	65.9987	-23.2308	-43.3759	83.4949	-10.0342	-7.98147	76.677	-46.9813	-32.7525	54.7439	-25.6793	-23.0049	74.1222	-11.6205	2.7153	65.2347	-53.7203	-12.0205	52.1126	-26.3615	-3.81672	73.5365	-16.6165	21.3864	117.415	-53.5918	16.9282	126.386	-40.9552	50.0582	139.059	-19.0637	22.1212	
258	2.15	109.261	18.901	15.2208	83.1275	16.4458	-17.1648	62.7163	0.260489	-39.6133	51.6102	-28.3157	-46.9619	104.251	-24.4597	-52.2713	71.8132	-14.9155	-50.3694	80.4595	-3.62978	-20.7372	90.3553	-43.2311	-44.3445	59.8567	-22.8762	-37.5602	80.8848	-12.8548	-4.77418	70.8047	-52.5091	-29.8384	50.8494	-30.2456	-19.2416	73.6227	-18.2111	8.46948	69.3552	-58.3442	-9.45351	48.907	-32.3595	3.04375	73.635	-21.0263	22.2673	122.052	-52.0734	16.4185	126.573	-42.8299	48.6082	139.061	-15.7698	17.9793	
259	2.15833	101.65	19.2475	15.668	73.9331	10.8757	-10.2432	54.0802	-4.97595	-33.9354	44.9734	-30.8548	-42.5364	95.3185	-18.3361	-54.8886	64.7735	-14.2432	-49.1961	75.052	-0.547007	-16.8376	83.8572	-42.0425	-45.6595	55.7188	-26.4697	-35.2283	74.0006	-17.577	-1.46285	75.0767	-51.8142	-30.2492	49.75	-39.3521	-17.7151	69.7796	-20.9897	7.58993	66.882	-63.4754	-10.172	50.0091	-37.0548	6.43967	70.9084	-25.2374	24.6854	123.713	-51.975	11.6723	129.75	-39.699	48.3854	134.925	-7.77675	17.3528	
260	2.16667	91.9873	20.9411	18.5446	64.4157	11.2611	-4.09153	44.0278	-7.1469	-30.9805	39.2644	-36.6437	-42.8186	86.5814	-18.5493	-52.7611	57.7704	-19.8643	-46.2955	68.5747	-3.44912	-13.6578	85.031	-38.4874	-44.2956	50.8154	-33.2681	-32.7018	70.8157	-17.2227	-0.512821	73.0418	-52.1554	-29.8354	48.3171	-40.8099	-13.9527	70.1104	-24.4857	11.3805	69.7635	-65.7466	-10.8406	50.7057	-45.9674	6.95395	71.521	-31.0095	26.0091	124.637	-45.1445	11.4393	132.986	-32.9035	43.1759	130.921	-5.89959	12.1165	
261	2.175	85.4844	18.6307	21.6871	56.2664	5.96412	-4.20602	39.9413	-16.5747	-28.7909	42.4322	-42.9569	-36.4307	79.9113	-13.1165	-51.6164	49.2295	-17.3005	-45.2918	61.5021	-7.23236	-11.0618	78.6973	-34.7445	-47.6198	49.3765	-38.213	-28.8191	69.7155	-17.063	1.17131	72.0463	-53.4611	-30.5063	49.4115	-49.1602	-11.8306	71.3968	-26.1334	12.2729	79.2459	-65.0903	-12.2387	53.3406	-51.7216	8.23529	75.926	-30.4829	24.1803	126.947	-38.2513	4.17399	134.325	-24.312	37.1413	124.398	2.5946	12.1819	
262	2.18333	76.7928	17.0414	19.9305	47.6332	2.99411	2.68663	30.5004	-17.956	-23.7236	36.5765	-46.5318	-35.9391	69.0809	-12.2568	-51.6365	45.5318	-24.1692	-39.5377	57.4132	-11.4256	-7.03151	75.347	-36.8393	-45.7011	46.2739	-41.3634	-25.1298	66.0916	-22.0512	1.94436	74.347	-53.2787	-30.7618	50.0495	-49.5408	-9.50691	71.9344	-30.5301	14.1878	79.1765	-65.6327	-14.0594	55.9438	-55.4856	6.75409	73.0557	-36.4769	24.9165	126.866	-33.9706	3.722	136.937	-21.2734	33.1529	119.77	6.19408	7.68032	
263	2.19167	69.2306	12.9107	21.8024	42.0314	-3.65781	3.74512	28.6261	-28.0598	-23.2703	34.9979	-51.9136	-35.7844	61.2571	-11.6645	-50.0372	36.2206	-25.4287	-35.8876	48.7385	-14.5712	-5.86001	72.5902	-34.8623	-45.3542	44.9322	-45.746	-27.2712	60.8712	-21.7266	2.89316	71.9243	-53.279	-32.2319	51.1592	-57.4682	-7.57123	69.8531	-35.0128	14.0307	82.4698	-66.428	-16.323	59.3601	-58.839	7.81636	73.3006	-36.5832	24.9908	123.788	-25.8064	-1.21968	134.531	-14.6145	30.4308	110.422	10.5744	11.1801	
264	2.2	61.3036	11.7397	29.5281	37.1381	-9.52642	9.98034	24.1636	-34.6339	-19.4048	34.5361	-56.3603	-30.0403	53.5146	-14.5752	-47.385	31.9632	-29.9299	-34.2544	46.9901	-20.1159	-3.79817	66.3831	-35.7822	-45.265	42.7826	-50.7757	-23.7559	60.9467	-25.2377	5.04366	72.7198	-55.406	-31.644	50.2164	-57.651	-7.64788	72.1907	-34.3912	14.0001	82.3389	-63.7466	-18.4127	60.2065	-60.9146	7.72504	76.6942	-35.3026	23.5514	121.775	-23.3588	-2.75829	129.148	-10.4645	25.9049	103.198	12.7897	11.1786	
265	2.20833	59.3373	5.81134	28.4479	32.4419	-14.8623	10.5	19.7372	-39.7253	-16.1162	33.2943	-62.0311	-31.9811	49.0055	-16.5091	-44.4129	29.0845	-36.9041	-31.2795	43.0343	-22.357	0.605932	58.9941	-37.5098	-45.1095	40.543	-53.0927	-22.5425	58.7429	-30.9874	6.29205	67.4703	-54.8294	-30.19	51.8274	-62.4977	-2.26809	66.3726	-37.6298	14.5926	80.6897	-67.8167	-17.2437	61.9324	-64.6716	7.74919	78.5608	-39.7454	26.1025	115.136	-20.5564	-8.50125	127.872	-5.7352	27.3885	96.6061	15.3594	10.51	
266	2.21667	52.1461	5.6025	30.9468	30.1227	-17.799	15.9292	20.0955	-41.3166	-8.88804	29.5836	-64.7349	-29.1776	45.8843	-15.5903	-40.6738	25.1202	-39.1677	-25.4893	40.5018	-26.3115	2.70053	55.8829	-38.6347	-42.2667	37.1117	-55.1876	-18.3972	50.908	-30.7115	9.06121	63.8345	-53.5097	-29.5274	52.9009	-65.8882	-3.60819	66.9217	-36.5141	16.4778	81.3187	-61.9472	-17.6394	64.0937	-66.5646	13.4151	74.6887	-36.0998	27.1442	112.7	-16.0689	-7.16386	122.71	-6.04987	23.0743	92.5163	13.4641	13.199	
267	2.225	53.5014	4.49412	36.4004	27.0988	-17.5187	16.8192	15.7084	-42.0576	-7.04548	27.37	-63.1322	-24.026	36.8551	-13.1578	-38.2586	24.7571	-39.9727	-26.4783	40.085	-23.3649	5.86237	50.8904	-34.9659	-40.7319	36.1159	-55.0949	-16.8516	49.7589	-31.9728	11.2251	61.9341	-54.4933	-28.0382	46.9069	-60.7009	-0.873345	64.0167	-32.1993	17.6342	78.1344	-61.5925	-15.4685	62.183	-65.4469	13.83	75.8194	-35.5956	28.6212	108.54	-15.066	-8.5391	121.368	-2.73849	23.6269	87.0512	15.5821	11.092	
268	2.23333	49.3959	9.23609	37.7051	20.9699	-14.8562	16.7918	12.3758	-38.4785	-3.9767	23.8213	-61.2845	-26.5231	36.9618	-16.4318	-40.1343	19.0088	-35.7587	-23.048	33.8358	-21.4544	5.18261	50.6446	-34.7752	-39.7679	31.0366	-51.4415	-18.5786	51.5033	-28.4045	11.7432	57.5645	-52.6386	-27.2649	43.2816	-58.1773	0.174145	59.4813	-31.7482	17.6894	75.6045	-62.8253	-13.9679	57.7381	-60.1589	17.0199	74.5638	-35.1537	31.9293	104.782	-14.0035	-6.91702	119.907	-5.01466	27.7759	86.3158	18.6147	16.7916	
269	2.24167	50.6321	10.8463	33.7933	22.5051	-8.6223	16.2603	9.20816	-33.8346	-6.17585	20.1336	-56.4336	-23.6873	34.8036	-8.39386	-39.188	19.1658	-32.6253	-23.1354	33.7785	-19.4543	4.21328	48.5422	-27.8351	-39.4002	29.9907	-49.1835	-14.5632	49.5471	-23.9874	12.0625	58.841	-49.3034	-26.3834	39.8958	-56.0307	-1.36306	55.7441	-29.9928	18.3909	71.6403	-62.5761	-12.0386	54.4696	-57.3733	16.9702	71.7443	-33.1733	30.9292	104.588	-12.3496	-6.32846	117.543	-1.72801	24.6561	86.2883	21.1969	13.9456	
270	2.25	47.1063	21.1407	33.6091	18.2723	0.216094	18.0681	8.82546	-24.8326	-3.24952	18.8481	-48.4316	-19.8736	36.8995	-5.23146	-39.0661	18.2266	-25.758	-22.3437	32.1251	-11.8892	5.40732	45.7246	-23.4969	-39.0186	26.0143	-41.7698	-15.8716	43.3087	-14.1568	12.299	53.0066	-45.0087	-23.7448	35.759	-45.896	3.6686	56.782	-20.4353	19.6097	68.0151	-56.891	-11.5983	50.1791	-53.6052	17.4436	65.2151	-26.7111	28.6953	103.055	-10.3083	-0.761365	116.647	2.95574	29.6797	90.1501	24.8606	15.8643	
271	2.25833	48.3502	28.2306	37.1931	17.235	9.03489	19.4641	2.66953	-15.182	-2.4255	15.6847	-39.3244	-18.9068	35.0269	4.86261	-35.252	13.6697	-14.0018	-20.6774	33.7324	-0.223573	8.95695	44.4607	-16.5989	-35.3071	22.4499	-33.2193	-12.8184	42.4054	-11.0559	14.6451	50.7783	-36.7195	-21.0843	34.2615	-41.3139	7.49554	53.457	-15.2774	22.9688	62.0285	-48.4519	-8.77826	45.0006	-43.3517	22.2957	61.0486	-19.8159	33.9852	101.132	-5.37677	-2.60482	117.059	0.59849	34.2454	89.973	30.5793	16.9837	
272	2.26667	49.4428	35.4869	39.4852	20.4195	18.1976	24.2502	4.80665	-5.22633	1.64025	9.29133	-28.4951	-10.5315	33.448	15.865	-29.4648	11.7214	-4.6909	-14.9797	27.3534	7.56405	14.5806	41.1726	-12.613	-29.8616	18.0543	-21.9883	-4.14345	43.0878	1.96117	20.8048	45.8039	-26.9477	-15.2866	28.8038	-31.1941	15.4662	50.0136	-7.81816	28.7776	53.519	-43.1007	-0.14221	40.2105	-35.173	29.861	62.3021	-13.9094	41.8522	97.5247	-2.25524	4.97674	115.509	6.61062	35.2711	92.3144	30.9334	21.6171	
273	2.275	51.4815	45.1072	50.421	21.0204	27.8784	32.5726	-1.511	7.75789	14.9659	2.7314	-18.6348	-2.72892	32.5724	23.0621	-20.9205	6.69422	8.30377	-6.06084	26.7356	16.5568	23.2919	38.9408	-2.93625	-19.8011	13.5324	-10.4118	7.46551	37.7381	8.05029	30.5202	38.2758	-22.1723	-3.15465	24.2711	-21.0655	24.0703	49.3568	3.53542	37.3475	50.3523	-36.4016	9.37468	33.1842	-24.736	35.7186	54.4757	-6.56552	51.096	96.8901	3.95937	15.4089	110.579	9.21782	42.8152	89.9975	36.4225	26.0958	
274	2.28333	53.7864	52.5342	63.5165	20.2117	39.4033	49.4753	-4.65629	16.8146	24.7099	0.160159	-8.56515	12.9994	25.1984	32.6331	-9.10503	4.52427	17.7672	8.20411	22.24	29.6331	37.4344	29.5926	8.01319	-7.48518	10.4015	-0.134131	20.3943	36.2251	20.0493	43.318	31.4647	-14.3043	8.80431	18.3239	-9.97216	33.0969	47.905	8.94038	50.378	46.4689	-28.4198	21.0254	30.6252	-16.8586	50.7117	54.9435	-0.354124	62.9723	93.9537	9.89602	23.0662	114.32	12.9175	55.5378	89.5695	41.7707	37.6722	
275	2.29167	52.5892	58.9537	75.197	15.5492	47.5838	61.4731	-2.15142	25.2697	41.3402	-4.5131	1.09729	26.3446	27.3387	40.5791	5.81595	0.769696	28.367	23.851	23.8303	39.3735	52.296	29.895	14.3604	6.21304	7.62173	9.26222	33.9343	34.0493	24.1274	56.0546	33.7906	-4.76812	20.3202	18.1394	-4.61258	49.295	42.3473	16.5361	63.2796	39.2328	-18.9197	34.849	29.0503	-5.46889	62.4422	52.4342	9.18481	76.0635	89.4844	12.1078	33.0578	110.641	22.2394	64.9745	89.1103	48.2608	51.8397	
276	2.3	53.812	67.1988	91.8842	15.3629	56.9387	78.266	-8.25261	36.7671	58.0079	-7.08296	10.0255	39.8913	25.5265	51.8263	19.6935	1.18511	35.3106	35.85	22.6741	47.1647	66.3295	29.0109	28.8832	20.1505	6.7492	17.5396	48.1585	34.1873	30.9286	70.4249	27.0401	5.9615	34.5563	16.4826	7.56857	63.9152	41.7631	23.2037	77.5376	38.2651	-5.92679	45.4005	28.7088	3.53626	75.5939	53.4078	17.741	89.782	87.4296	24.0938	45.5998	110.497	26.6004	78.3467	87.8901	57.134	63.2726	
277	2.30833	53.1383	73.0986	100.314	19.119	63.3689	89.536	-6.60905	44.1066	69.2016	-5.71292	20.9534	56.884	22.6761	59.6335	32.7071	-0.650964	47.6829	49.5515	25.3675	53.2335	78.7317	28.4189	36.3021	32.3003	5.94628	26.443	57.8227	38.7555	41.8615	82.4048	27.3095	16.7758	46.0195	16.214	12.4751	73.0074	43.8966	35.4421	89.1026	41.1019	1.04975	57.2266	30.5963	8.19808	90.1262	55.077	27.155	98.241	89.0458	32.4111	57.4837	111.906	37.7687	88.7562	88.122	70.832	76.1514	
278	2.31667	52.6026	83.4071	114.197	19.5198	70.9871	100.215	-5.72024	53.2814	81.0841	-4.04118	28.5551	63.168	22.5347	72.1359	44.5238	0.610021	56.0386	62.8899	22.6404	59.4243	88.7284	28.4471	43.9319	43.441	5.53914	36.7799	67.5539	33.4905	50.8141	94.4793	27.7504	26.6682	55.1362	16.018	22.7724	82.6975	43.668	39.757	99.3336	42.2592	9.89392	65.5166	30.004	13.8906	97.4286	57.7419	34.6754	110.695	89.3754	41.7072	67.9333	114.269	43.236	98.5166	88.2811	78.9404	88.2421	
